<?xml version="1.0" encoding="UTF-8"?>
<svg version="1.1" xmlns="http://www.w3.org/2000/svg" width="684" height="682">
<path d="M0 0 C2.24716435 -0.00461704 4.49432568 -0.01097532 6.74148077 -0.01890898 C12.87472151 -0.03551477 19.00771139 -0.02739582 25.14095271 -0.0149641 C31.08924569 -0.00681485 37.03749797 -0.01752247 42.98578154 -0.02755357 C55.89218923 -0.0485508 68.79851743 -0.04681737 81.70493257 -0.03523792 C92.99926486 -0.02515517 104.2935681 -0.02255843 115.58790398 -0.02732849 C116.33858606 -0.02763403 117.08926813 -0.02793957 117.86269815 -0.02825437 C120.9103453 -0.02949983 123.95799244 -0.03077344 127.00563956 -0.03209343 C155.56369503 -0.04431481 184.12170003 -0.03325858 212.6797477 -0.01170584 C238.02516788 0.00727691 263.37050765 0.00557476 288.71592712 -0.0135498 C317.22497984 -0.03498987 345.733988 -0.04344984 374.24304765 -0.03110075 C377.28466601 -0.02981797 380.32628438 -0.02856661 383.36790276 -0.02732849 C384.49119964 -0.02685403 384.49119964 -0.02685403 385.63718938 -0.02636998 C396.92225252 -0.02182916 408.20728334 -0.02712418 419.492342 -0.0372467 C432.32928371 -0.04870419 445.16613386 -0.04578086 458.00306422 -0.02412373 C464.54884317 -0.01344324 471.09449293 -0.00945915 477.64027405 -0.02272034 C483.639001 -0.0346892 489.63741491 -0.02800745 495.6361137 -0.00681013 C497.79939903 -0.00236314 499.96271112 -0.00456716 502.12597907 -0.01431328 C527.90553402 -0.12149606 548.82991216 6.18022988 568.41099548 23.50793457 C587.36773938 43.51595897 592.03986178 66.3105346 591.91893005 93.02101135 C591.92354715 95.25992612 591.92990547 97.49883785 591.93783903 99.73774332 C591.95444407 105.84818124 591.94632622 111.95836732 591.93389416 118.06880581 C591.92574463 123.99507473 591.93645268 129.9213028 591.94648362 135.84756227 C591.96748042 148.7061136 591.9657476 161.56458514 591.95416797 174.42314395 C591.94408507 185.67559751 591.94148856 196.9280219 591.94625854 208.18047905 C591.94671686 209.30234313 591.94671686 209.30234313 591.94718442 210.44687113 C591.94842988 213.48326438 591.94970349 216.51965762 591.95102348 219.55605085 C591.96324476 248.00843171 591.9521888 276.46076191 591.93063589 304.91313495 C591.91165314 330.1645699 591.91335531 355.41592415 591.93247986 380.6673584 C591.95392009 409.07093573 591.9623798 437.47446835 591.9500308 465.87805265 C591.94874803 468.90843704 591.94749666 471.93882145 591.94625854 474.96920586 C591.94594224 475.71530414 591.94562593 476.46140243 591.94530003 477.23010975 C591.94075929 488.47330979 591.94605411 499.71647739 591.95617676 510.95967293 C591.96763443 523.74903763 591.96471052 536.53831042 591.94305378 549.32766373 C591.93237355 555.84913963 591.92838878 562.37048588 591.94165039 568.89196396 C591.95361977 574.86848625 591.94693668 580.84469436 591.92574018 586.82118838 C591.92129341 588.97639839 591.92349673 591.13163526 591.93324333 593.28682781 C592.04071635 619.03853411 585.71740765 639.95091275 568.41099548 659.50793457 C548.37696019 678.48932267 525.56335387 683.1364822 498.82199097 683.01586914 C496.57482661 683.02048618 494.32766529 683.02684446 492.0805102 683.03477812 C485.94726945 683.05138391 479.81427958 683.04326496 473.68103826 683.03083324 C467.73274527 683.02268399 461.784493 683.03339161 455.83620943 683.04342271 C442.92980174 683.06441994 430.02347354 683.06268651 417.1170584 683.05110706 C405.8227261 683.04102431 394.52842286 683.03842757 383.23408699 683.04319763 C382.48340491 683.04350317 381.73272283 683.04380871 380.95929281 683.04412351 C377.91164566 683.04536897 374.86399853 683.04664258 371.81635141 683.04796257 C343.25829594 683.06018395 314.70029094 683.04912772 286.14224326 683.02757498 C260.79682309 683.00859223 235.45148332 683.01029438 210.10606384 683.02941895 C181.59701113 683.05085901 153.08800297 683.05931898 124.57894331 683.04696989 C121.53732496 683.04568712 118.49570659 683.04443575 115.45408821 683.04319763 C114.70522362 683.04288132 113.95635904 683.04256501 113.18480158 683.04223912 C101.89973845 683.0376983 90.61470763 683.04299332 79.32964897 683.05311584 C66.49270726 683.06457333 53.65585711 683.06165001 40.81892674 683.03999287 C34.2731478 683.02931238 27.72749804 683.02532829 21.18171692 683.03858948 C15.18298997 683.05055834 9.18457606 683.04387659 3.18587727 683.02267927 C1.02259194 683.01823228 -1.14072016 683.0204363 -3.30398811 683.03018242 C-29.08354305 683.1373652 -50.00792119 676.83563926 -69.58900452 659.50793457 C-88.54574842 639.49991017 -93.21787082 616.70533454 -93.09693909 589.99485779 C-93.10155618 587.75594302 -93.1079145 585.51703129 -93.11584806 583.27812582 C-93.1324531 577.16768791 -93.12433526 571.05750182 -93.11190319 564.94706333 C-93.10375367 559.02079441 -93.11446172 553.09456634 -93.12449265 547.16830687 C-93.14548945 534.30975554 -93.14375663 521.451284 -93.132177 508.59272519 C-93.12209411 497.34027163 -93.11949759 486.08784724 -93.12426758 474.83539009 C-93.12457312 474.08748071 -93.12487866 473.33957132 -93.12519346 472.56899802 C-93.12643892 469.53260476 -93.12771253 466.49621152 -93.12903251 463.4598183 C-93.1412538 435.00743743 -93.13019783 406.55510723 -93.10864493 378.10273419 C-93.08966218 352.85129924 -93.09136435 327.59994499 -93.11048889 302.34851074 C-93.13192912 273.94493341 -93.14038883 245.54140079 -93.12803984 217.13781649 C-93.12675706 214.1074321 -93.1255057 211.07704769 -93.12426758 208.04666328 C-93.12395127 207.300565 -93.12363496 206.55446671 -93.12330906 205.78575939 C-93.11876832 194.54255935 -93.12406314 183.29939175 -93.13418579 172.05619621 C-93.14564346 159.26683152 -93.14271956 146.47755872 -93.12106282 133.68820541 C-93.11038258 127.16672951 -93.10639782 120.64538326 -93.11965942 114.12390518 C-93.1316288 108.14738289 -93.12494571 102.17117478 -93.10374922 96.19468076 C-93.09930244 94.03947075 -93.10150576 91.88423389 -93.11125237 89.72904133 C-93.21872539 63.97733503 -86.89541669 43.06495639 -69.58900452 23.50793457 C-49.55496922 4.52654647 -26.74136291 -0.12061306 0 0 Z " fill="#F8F9FA" transform="translate(92.58900451660156,-0.5079345703125)"/>
<path d="M0 0 C2.31723469 0.92526106 3.58937481 1.96594423 5.37166309 3.70673943 C6.32867115 4.63154861 6.32867115 4.63154861 7.3050127 5.57504082 C7.99350803 6.25546944 8.68200336 6.93589806 9.39136219 7.63694572 C10.12507038 8.35094032 10.85877857 9.06493492 11.61472034 9.80056572 C14.04160305 12.16827898 16.45626433 14.54793205 18.86865711 16.93040276 C19.69367914 17.7431982 20.51870117 18.55599365 21.36872387 19.39341927 C25.73375053 23.69587869 30.08887871 28.00809428 34.43677235 32.32786369 C38.92891956 36.7868042 43.45495268 41.20962395 47.98964882 45.62522507 C51.47115552 49.02828939 54.92573011 52.45775154 58.37360668 55.89485359 C60.03057544 57.53721125 61.69766725 59.16942128 63.37492275 60.79105568 C65.7220999 63.06515405 68.02844976 65.37427521 70.32886219 67.69553947 C71.02747868 68.35572578 71.72609516 69.01591209 72.44588184 69.69610405 C75.27955287 72.62438782 76.93853355 74.496481 77.24799633 78.65052986 C76.84107736 83.54300108 75.8800436 88.25204736 74.41162586 92.93821526 C73.87602039 94.71518791 73.87602039 94.71518791 73.32959461 96.52805901 C73.0248119 97.52941887 73.0248119 97.52941887 72.71387196 98.55100822 C71.32673975 103.18444984 70.03011597 107.84388646 68.72412586 112.50071526 C68.28084949 114.07804436 68.28084949 114.07804436 67.82861805 115.68723869 C65.18224221 125.1660758 62.69836828 134.6844977 60.25806141 144.21824455 C59.842943 145.83920036 59.842943 145.83920036 59.41943836 147.49290276 C59.05423084 148.92738762 59.05423084 148.92738762 58.68164539 150.39085197 C58.1956361 152.21605417 57.63391709 154.02134158 57.03662586 155.81321526 C57.69662586 155.81321526 58.35662586 155.81321526 59.03662586 155.81321526 C59.36662586 154.82321526 59.69662586 153.83321526 60.03662586 152.81321526 C60.69662586 152.81321526 61.35662586 152.81321526 62.03662586 152.81321526 C62.69662586 151.49321526 63.35662586 150.17321526 64.03662586 148.81321526 C64.69662586 148.81321526 65.35662586 148.81321526 66.03662586 148.81321526 C66.24287586 148.25634026 66.44912586 147.69946526 66.66162586 147.12571526 C68.19473649 144.54730192 70.05959695 143.07561646 72.39209461 141.23118401 C74.73026302 139.21513856 76.61467492 136.89430208 78.58740711 134.52805901 C80.61862593 132.12454132 82.71566547 129.94076229 85.03662586 127.81321526 C85.69662586 127.81321526 86.35662586 127.81321526 87.03662586 127.81321526 C87.69662586 126.49321526 88.35662586 125.17321526 89.03662586 123.81321526 C89.69662586 123.81321526 90.35662586 123.81321526 91.03662586 123.81321526 C91.34600086 122.97790276 91.34600086 122.97790276 91.66162586 122.12571526 C93.17814701 119.57520242 94.99589928 118.13680607 97.30615711 116.31712151 C100.56530889 113.48467583 103.26728504 110.11512162 106.03662586 106.81321526 C109.99432222 108.42119457 112.72568342 111.1627418 115.71240711 114.11790276 C116.24182407 114.63829124 116.77124104 115.15867973 117.31670094 115.69483757 C118.42957927 116.79324932 119.53970238 117.89445874 120.64722157 118.99827385 C122.34875267 120.68784469 124.06804979 122.3578664 125.78857899 124.02805901 C126.86849858 125.09852116 127.94731417 126.17009848 129.02490711 127.24290276 C129.54249088 127.74095421 130.06007465 128.23900566 130.59334278 128.75214958 C132.01050282 130.18772697 132.01050282 130.18772697 134.03662586 132.81321526 C133.95160732 135.7585004 132.58960564 137.82303267 131.03271961 140.28196526 C130.62585926 140.92931633 130.21899891 141.5766674 129.79980946 142.24363518 C129.36233387 142.9265966 128.92485828 143.60955803 128.47412586 144.31321526 C127.79857655 145.38116325 127.79857655 145.38116325 127.10937977 146.47068596 C123.81914166 151.65028137 120.42894278 156.75866364 116.98975086 161.84055901 C115.5560473 164.02265583 114.17775595 166.2062086 112.83350086 168.44212151 C112.47014637 169.04580559 112.10679188 169.64948967 111.73242664 170.27146721 C110.71495027 171.97398866 109.70753407 173.68251049 108.70068836 175.39134026 C107.87697742 176.59016838 107.87697742 176.59016838 107.03662586 177.81321526 C106.37662586 177.81321526 105.71662586 177.81321526 105.03662586 177.81321526 C104.69631336 179.06231682 104.69631336 179.06231682 104.34912586 180.33665276 C102.77413996 184.50849041 100.57408394 187.79877538 98.03662586 191.43821526 C94.18267943 196.91641594 94.18267943 196.91641594 91.03662586 202.81321526 C90.37662586 202.81321526 89.71662586 202.81321526 89.03662586 202.81321526 C88.8187743 203.45774651 88.60092274 204.10227776 88.37646961 204.76634026 C86.5267121 208.97278592 84.07916143 212.70295888 81.59912586 216.56321526 C81.06416492 217.40303947 80.52920399 218.24286369 79.97803211 219.10813713 C76.08410103 225.21077205 72.15154983 231.28851872 68.2075243 237.35886955 C62.73568557 245.79181028 57.3873324 254.30309759 52.03662586 262.81321526 C61.36136871 257.19487077 70.63867944 251.5419476 79.64819813 245.42698479 C84.09862282 242.40959293 88.62408263 239.52157379 93.16528797 236.6428051 C97.75318175 233.71944178 102.29888168 230.73219871 106.84912586 227.75071526 C115.71927995 221.94976567 124.63203499 216.22059786 133.59058094 210.55711174 C138.39254188 207.51695226 143.15013259 204.4229441 147.87061024 201.25779533 C152.06660091 198.45936468 156.31588113 195.74268798 160.56079578 193.01926994 C163.96626317 190.82739952 167.34828575 188.61912256 170.66162586 186.28977776 C172.23943836 185.18762932 172.23943836 185.18762932 173.84912586 184.06321526 C175.22004383 183.08094963 175.22004383 183.08094963 176.61865711 182.07884026 C179.03662586 180.81321526 179.03662586 180.81321526 181.12256336 180.88743401 C183.52311131 182.04851536 185.00084939 183.45215257 186.84912586 185.37571526 C187.5490868 186.10016838 188.24904774 186.82462151 188.97021961 187.57102776 C190.83451753 189.59391434 192.63099197 191.65436613 194.41162586 193.75071526 C198.53303454 198.56061912 203.26396405 202.66474462 208.03662586 206.81321526 C206.71003275 209.74297102 205.26027594 211.85221293 203.01611805 214.14825249 C202.39675877 214.78625786 201.77739948 215.42426323 201.13927174 216.0816021 C200.46086735 216.77009743 199.78246296 217.45859276 199.08350086 218.16795158 C198.36775394 218.90165977 197.65200703 219.63536797 196.91457081 220.39130974 C194.5449559 222.81562865 192.1670319 225.23152421 189.78662586 227.64524651 C188.97349934 228.47026854 188.16037281 229.29529057 187.32260609 230.14531326 C183.01908067 234.50811045 178.70786925 238.86316834 174.39160633 243.21336174 C170.82046688 246.81569054 167.26577383 250.43312457 163.72461414 254.06492424 C159.4477638 258.45117008 155.14463849 262.80990719 150.82117176 267.15019608 C149.17874328 268.80790877 147.54573019 270.47500555 145.92249012 272.15151215 C143.64839596 274.49605846 141.34207925 276.80358048 139.02490711 279.10545158 C138.36269657 279.80406807 137.70048603 280.50268456 137.0182085 281.22247124 C134.22965668 283.93277885 132.39367196 285.70488263 128.42477036 286.02171898 C125.88960588 285.78744824 123.51346718 285.39359191 121.03662586 284.81321526 C120.01576893 284.60035881 118.99491199 284.38750237 117.94312 284.16819572 C116.64555775 283.8029882 116.64555775 283.8029882 115.32178211 283.43040276 C113.81780872 283.01528435 113.81780872 283.01528435 112.28345203 282.59177971 C111.2326244 282.29360344 110.18179676 281.99542717 109.09912586 281.68821526 C106.80522606 281.0527598 104.51094191 280.41869041 102.21631336 279.78587151 C101.03907703 279.45989983 99.86184071 279.13392815 98.64893055 278.79807854 C91.60890941 276.87867834 84.53412168 275.09082679 77.46069813 273.2990551 C70.80904422 271.59518822 64.2621726 269.68166313 57.72729969 267.57176018 C55.02130955 266.67754533 55.02130955 266.67754533 52.03662586 266.81321526 C67.87662586 282.65321526 83.71662586 298.49321526 100.03662586 314.81321526 C98.05813943 318.77018812 95.7878264 321.40046992 92.73193836 324.48899651 C92.21154987 325.01841347 91.69116138 325.54783043 91.15500355 326.09329033 C90.0565918 327.20616866 88.95538238 328.31629177 87.85156727 329.42381096 C86.16199643 331.12534207 84.49197472 332.84463919 82.82178211 334.56516838 C81.75131996 335.64508798 80.67974264 336.72390357 79.60693836 337.80149651 C79.10888691 338.31908028 78.61083546 338.83666405 78.09769154 339.36993217 C76.66211414 340.78709221 76.66211414 340.78709221 74.03662586 342.81321526 C70.88907419 342.7580207 68.68871694 341.12635264 66.10303211 339.41477776 C65.37148914 338.93524651 64.63994617 338.45571526 63.88623524 337.96165276 C63.13148914 337.45891838 62.37674305 336.95618401 61.59912586 336.43821526 C60.10088899 335.45053636 58.60220239 334.46353929 57.10303211 333.47727776 C56.40194324 333.01224846 55.70085438 332.54721916 54.97852039 332.06809807 C53.35424347 331.01846475 51.68243389 330.04287696 50.00146961 329.08665276 C49.35307117 328.66641838 48.70467274 328.24618401 48.03662586 327.81321526 C48.03662586 327.15321526 48.03662586 326.49321526 48.03662586 325.81321526 C47.18068836 325.56700432 46.32475086 325.32079338 45.44287586 325.06712151 C41.78603006 323.72096611 38.7493219 321.90478653 35.53662586 319.75071526 C34.31277317 318.94716892 33.0888114 318.14378869 31.86475086 317.34055901 C31.23891102 316.92660881 30.61307117 316.51265862 29.96826649 316.08616447 C26.75721599 313.97008544 23.52156119 311.89251472 20.28662586 309.81321526 C19.39233875 309.23494987 19.39233875 309.23494987 18.47998524 308.64500237 C15.32722741 306.61044953 15.32722741 306.61044953 12.03662586 304.81321526 C12.03662586 304.15321526 12.03662586 303.49321526 12.03662586 302.81321526 C11.4480077 302.69317131 10.85938953 302.57312737 10.25293446 302.44944572 C7.97493585 301.79550605 6.51379882 300.97698445 4.57568836 299.63352776 C3.93889149 299.19911369 3.30209461 298.76469963 2.64600086 298.31712151 C1.99115711 297.86208244 1.33631336 297.40704338 0.66162586 296.93821526 C-3.76182485 293.88057104 -8.07249108 291.09966523 -12.96337414 288.81321526 C-12.96337414 288.15321526 -12.96337414 287.49321526 -12.96337414 286.81321526 C-13.68992199 286.54315666 -14.41646984 286.27309807 -15.16503429 285.99485588 C-17.90409836 284.83824533 -20.23611647 283.50861896 -22.73681164 281.90696526 C-23.63762463 281.33244621 -24.53843761 280.75792717 -25.46654797 280.16599846 C-26.4142506 279.55458 -27.36195324 278.94316154 -28.33837414 278.31321526 C-29.79763317 277.37578484 -29.79763317 277.37578484 -31.28637218 276.41941643 C-33.25209023 275.15392367 -35.21621962 273.88595964 -37.17870617 272.61546135 C-38.92999143 271.48202388 -40.68328754 270.35168134 -42.43944836 269.22581291 C-44.55736655 267.86777588 -46.66792752 266.49916192 -48.77587414 265.12571526 C-49.39704113 264.72868401 -50.01820812 264.33165276 -50.65819836 263.92259026 C-54.84811075 261.1590054 -54.84811075 261.1590054 -55.96337414 257.81321526 C-55.10356945 257.57087151 -54.24376476 257.32852776 -53.35790539 257.07884026 C-46.36707046 255.09670603 -39.41017723 253.05034556 -32.48681164 250.84055901 C-28.44246323 249.66133103 -24.37058445 248.64666602 -20.28124523 247.6362133 C-14.54057072 246.21223878 -8.81497563 244.73008731 -3.08837414 243.25071526 C-1.90501476 242.94714104 -0.72165539 242.64356682 0.49756336 242.33079338 C1.64225086 242.03495354 2.78693836 241.73911369 3.96631336 241.43430901 C4.98966785 241.17061516 6.01302235 240.90692131 7.06738758 240.63523674 C10.06029881 239.853554 10.06029881 239.853554 12.97852039 238.7118969 C16.64587665 237.63417549 19.23182995 237.30714431 23.03662586 237.81321526 C25.42442516 239.58684729 27.19221568 241.1439571 29.18896961 243.28196526 C29.7339661 243.83686638 30.27896259 244.3917675 30.84047413 244.96348381 C32.56888233 246.73092164 34.27130268 248.52114961 35.97412586 250.31321526 C37.14501552 251.51923322 38.3175259 252.72367992 39.49170399 253.92649651 C42.35910238 256.87086769 45.20344439 259.83592003 48.03662586 262.81321526 C47.10346992 256.32503687 46.0048766 250.16167727 43.79053211 243.98460197 C42.46981451 240.18069579 41.52952804 236.27546658 40.53662586 232.37571526 C39.2278232 227.30379847 37.91284631 222.25144561 36.34912586 217.25071526 C35.11828008 213.29000481 34.32822404 209.32142478 33.57178211 205.24680901 C33.0426291 202.84051463 32.31573623 200.62662733 31.47412586 198.31321526 C29.87203162 193.57403595 28.32779286 188.85284505 29.03662586 183.81321526 C30.49219823 181.86491808 32.01349265 180.7044499 34.00146961 179.30930901 C36.23912895 177.66435023 37.8249008 175.88216684 39.59912586 173.75071526 C41.65866236 171.32258162 43.66979211 169.1702109 46.16162586 167.18821526 C49.27651056 164.61504963 51.53840746 161.97272677 54.03662586 158.81321526 C46.93621071 160.33208667 39.98004734 162.07791957 33.03662586 164.18821526 C25.57052828 166.45324981 18.04148668 168.30987051 10.43115711 170.0256176 C5.54320281 171.14435288 0.82288387 172.4664867 -3.90673351 174.13670158 C-6.8127797 175.09261967 -9.73992726 175.74244262 -12.7468214 176.29636955 C-14.97629745 176.72731606 -14.97629745 176.72731606 -16.91234875 177.77732658 C-19.57057194 178.92180805 -21.06783632 179.20425337 -23.96337414 178.81321526 C-28.92972454 175.2814566 -32.90663532 170.90185623 -37.02587414 166.43821526 C-38.1866945 165.22219482 -39.35008291 164.00862035 -40.51610851 162.79759026 C-43.36239306 159.83031111 -46.1714181 156.83163171 -48.96337414 153.81321526 C-48.42198849 157.87500692 -47.80330085 161.82564515 -46.76415539 165.78977776 C-46.40934093 167.14994011 -46.40934093 167.14994011 -46.04735851 168.53758049 C-45.79276867 169.49478996 -45.53817883 170.45199944 -45.27587414 171.43821526 C-45.00968273 172.45020988 -44.74349133 173.46220451 -44.46923351 174.50486565 C-42.71837044 181.11231392 -40.8687291 187.68642347 -38.96337414 194.25071526 C-36.70120532 202.10070543 -34.52647058 209.97094221 -32.46337414 217.87571526 C-32.18364758 218.90559563 -31.90392101 219.935476 -31.61571789 220.99656487 C-31.24640148 222.43914665 -31.24640148 222.43914665 -30.86962414 223.91087151 C-30.64597179 224.76173332 -30.42231945 225.61259514 -30.19188976 226.48924065 C-29.91105026 229.34534236 -30.52641037 230.35998074 -31.96337414 232.81321526 C-33.39638996 234.49232674 -33.39638996 234.49232674 -35.08913708 236.17948723 C-36.05247463 237.14694878 -36.05247463 237.14694878 -37.03527355 238.133955 C-38.09047192 239.17836754 -38.09047192 239.17836754 -39.16698742 240.24387932 C-39.90855083 240.98573479 -40.65011425 241.72759026 -41.41414928 242.49192619 C-43.86595084 244.94233465 -46.32476018 247.38558325 -48.78368664 249.82884026 C-50.48520239 251.52662582 -52.18627706 253.22485355 -53.8869276 254.92350578 C-58.3640222 259.39296442 -62.84709052 263.85638439 -67.33141613 268.31858635 C-71.90635883 272.87306993 -76.47564462 277.43322093 -81.04540539 281.99290276 C-90.01252409 290.93857218 -98.98577122 299.87806816 -107.96337414 308.81321526 C-109.07418725 307.86858137 -110.18392763 306.92268596 -111.29322338 305.97627068 C-111.91132665 305.44966284 -112.52942991 304.923055 -113.16626358 304.38048935 C-115.62970516 302.23210279 -117.93702181 299.95153251 -120.24071789 297.63352776 C-121.16562023 296.70540276 -122.09052258 295.77727776 -123.04345226 294.82102776 C-123.99598263 293.86014617 -124.94845591 292.899208 -125.90087414 291.93821526 C-126.88045651 290.95360606 -127.86027251 289.96922925 -128.84032726 288.98509026 C-131.21697666 286.59673323 -133.5912477 284.20606313 -135.96337414 281.81321526 C-134.85549894 279.91205836 -133.74737804 278.01104464 -132.63915539 276.11009026 C-132.02209728 275.05144768 -131.40503918 273.9928051 -130.76928234 272.90208244 C-130.17333263 271.88275627 -129.57738293 270.8634301 -128.96337414 269.81321526 C-128.46861584 268.96662346 -127.97385754 268.12003166 -127.46410656 267.24778557 C-126.35390742 265.40096239 -125.16658102 263.60083691 -123.96337414 261.81321526 C-123.30337414 261.81321526 -122.64337414 261.81321526 -121.96337414 261.81321526 C-121.68493664 260.63759026 -121.68493664 260.63759026 -121.40087414 259.43821526 C-119.73555346 255.23871094 -117.4239026 252.06645952 -114.78368664 248.42649651 C-112.20046818 244.71797043 -110.05940201 240.81208871 -107.96337414 236.81321526 C-107.30337414 236.81321526 -106.64337414 236.81321526 -105.96337414 236.81321526 C-105.7068507 236.11067619 -105.45032726 235.40813713 -105.18603039 234.68430901 C-103.84392567 231.53272125 -102.21476167 228.78159973 -100.40087414 225.87571526 C-100.05661388 225.32230461 -99.71235363 224.76889397 -99.35766125 224.1987133 C-96.23791171 219.20278009 -93.05236633 214.24826591 -89.8459425 209.30760002 C-87.78251819 206.13161341 -87.78251819 206.13161341 -85.96337414 202.81321526 C-85.30337414 202.81321526 -84.64337414 202.81321526 -83.96337414 202.81321526 C-83.72489758 202.13774651 -83.48642101 201.46227776 -83.24071789 200.76634026 C-81.67152903 197.13849079 -79.64368071 193.88664309 -77.52587414 190.56321526 C-77.08775402 189.86937737 -76.6496339 189.17553947 -76.19823742 188.46067619 C-68.61018924 176.47558913 -60.87898715 164.58457099 -52.96337414 152.81321526 C-59.60939519 156.57015843 -66.06438076 160.42036481 -72.22118664 164.94212151 C-74.62919386 166.58519196 -77.05961142 168.08355289 -79.56493664 169.57102776 C-85.21877799 172.93397146 -90.7168662 176.51297185 -96.21337414 180.12571526 C-98.2495878 181.45942221 -100.2860452 182.79275712 -102.32274914 184.12571526 C-103.29534679 184.76251213 -104.26794445 185.39930901 -105.27001476 186.05540276 C-108.65551296 188.26493748 -112.05638521 190.44952862 -115.46337414 192.62571526 C-120.00052572 195.53165281 -124.49172914 198.49582261 -128.96337414 201.50071526 C-136.02171506 206.24079326 -143.19299374 210.79453209 -150.38671398 215.32591057 C-155.28281125 218.42307902 -160.12308338 221.57892799 -164.90087414 224.85618401 C-166.33245861 225.83409904 -166.33245861 225.83409904 -167.79296398 226.83176994 C-169.62369923 228.08850174 -171.44728296 229.35573082 -173.26269054 230.63450432 C-174.08430676 231.19750237 -174.90592297 231.76050041 -175.75243664 232.34055901 C-176.47125011 232.84321281 -177.19006359 233.34586662 -177.93065929 233.86375237 C-179.96337414 234.81321526 -179.96337414 234.81321526 -181.86034679 234.81565666 C-185.0961349 233.27326684 -187.35744113 230.78466077 -189.82274914 228.24680901 C-190.37199047 227.69332283 -190.9212318 227.13983665 -191.48711681 226.56957817 C-193.23637878 224.80354967 -194.97491058 223.02736833 -196.71337414 221.25071526 C-197.89887914 220.05016084 -199.08506937 218.85028265 -200.27196789 217.65110588 C-203.17710707 214.71292431 -206.07266751 211.76559451 -208.96337414 208.81321526 C-207.63602582 205.88027107 -206.18527085 203.77376895 -203.9361372 201.47817802 C-203.31533276 200.84017265 -202.69452831 200.20216728 -202.05491161 199.54482841 C-201.37493618 198.85633308 -200.69496075 198.16783775 -199.99438 197.45847893 C-199.27702679 196.72477074 -198.55967358 195.99106255 -197.82058239 195.23512077 C-195.44600784 192.81094493 -193.06324398 190.39507598 -190.67821789 187.98118401 C-189.86384321 187.15616198 -189.04946854 186.33113995 -188.21041584 185.48111725 C-183.90128915 181.11858253 -179.58487363 176.76339376 -175.26342297 172.41306877 C-171.68668062 168.80960757 -168.12503693 165.19217906 -164.57592297 161.56150627 C-160.29038839 157.17749234 -155.98096731 152.81839392 -151.65304279 148.47623444 C-150.00789969 146.81764639 -148.37129408 145.15054472 -146.74350834 143.47491837 C-144.46457108 141.1328585 -142.15620988 138.82421266 -139.83813 136.52097893 C-139.17232418 135.82236244 -138.50651836 135.12374596 -137.82053661 134.40395927 C-133.22400311 129.9268125 -133.22400311 129.9268125 -129.58257389 129.59867764 C-127.28935895 129.83046719 -125.1877192 130.21783321 -122.96337414 130.81321526 C-121.93502453 131.08270988 -120.90667492 131.35220451 -119.8471632 131.62986565 C-118.90066906 131.94947258 -117.95417492 132.26907951 -116.97899914 132.59837151 C-111.89634431 134.23524625 -106.80844489 135.68470004 -101.63524914 136.99680901 C-100.9093861 137.18135643 -100.18352306 137.36590385 -99.43566418 137.55604362 C-97.19551205 138.12339037 -94.95459656 138.68761238 -92.71337414 139.25071526 C-89.74884887 139.99558228 -86.78517814 140.74364564 -83.82274914 141.49680901 C-83.09704723 141.68101402 -82.37134533 141.86521904 -81.62365246 142.05500603 C-75.51739356 143.62592942 -69.47603678 145.39205323 -63.45647717 147.26742363 C-60.09078309 148.29409078 -57.52449492 148.81321526 -53.96337414 148.81321526 C-54.55441433 148.23327812 -55.14545452 147.65334099 -55.75440502 147.05583 C-61.31514116 141.59517141 -66.86385195 136.1226395 -72.39930344 130.63634682 C-75.24575494 127.81601787 -78.09668139 125.00053849 -80.95824718 122.19553947 C-83.71832986 119.48968098 -86.46610953 116.77188035 -89.20569706 114.04527855 C-90.25437676 113.00585594 -91.30745603 111.97085323 -92.36489582 110.94034386 C-93.84255029 109.49885193 -95.30394157 108.04259851 -96.7624464 106.58176994 C-97.59961697 105.75570244 -98.43678753 104.92963493 -99.2993269 104.07853508 C-100.96337414 101.81321526 -100.96337414 101.81321526 -100.87646008 99.68699455 C-99.35611113 96.56702712 -96.85582326 94.34240997 -94.39696789 91.95384026 C-93.84348171 91.40459892 -93.28999554 90.85535759 -92.71973705 90.28947258 C-90.95370855 88.54021061 -89.17752721 86.80167882 -87.40087414 85.06321526 C-86.20031972 83.87771025 -85.00044154 82.69152002 -83.80126476 81.50462151 C-80.86308319 78.59948233 -77.91575339 75.70392189 -74.96337414 72.81321526 C-71.79604846 74.32050449 -68.8848169 76.07985472 -65.93603039 77.97727776 C-64.96681652 78.59892815 -63.99760265 79.22057854 -62.99901867 79.86106682 C-61.49637463 80.82738029 -61.49637463 80.82738029 -59.96337414 81.81321526 C-58.02508585 83.05099936 -56.08628873 84.28798705 -54.14696789 85.52415276 C-51.23830043 87.37889788 -48.32967166 89.23369146 -45.42235851 91.09055901 C-44.48585461 91.68739494 -43.5493507 92.28423088 -42.58446789 92.89915276 C-41.74327404 93.43588615 -40.90208019 93.97261955 -40.03539562 94.5256176 C-38.01049553 95.82808897 -38.01049553 95.82808897 -35.96337414 96.81321526 C-35.96337414 97.47321526 -35.96337414 98.13321526 -35.96337414 98.81321526 C-34.63306164 99.18446526 -34.63306164 99.18446526 -33.27587414 99.56321526 C-29.84115445 100.85933589 -27.75380299 102.47528838 -24.96337414 104.81321526 C-23.97337414 105.14321526 -22.98337414 105.47321526 -21.96337414 105.81321526 C-21.96337414 106.47321526 -21.96337414 107.13321526 -21.96337414 107.81321526 C-20.78774914 108.09165276 -20.78774914 108.09165276 -19.58837414 108.37571526 C-15.57267715 109.96814682 -12.64679894 112.07003317 -9.17431164 114.60227776 C-4.22297329 118.01159346 0.95833686 121.04081766 6.14307117 124.08054924 C7.28534168 124.76226189 7.28534168 124.76226189 8.45068836 125.45774651 C9.14114246 125.86355949 9.83159657 126.26937248 10.54297352 126.68748283 C11.03587879 127.05897453 11.52878407 127.43046623 12.03662586 127.81321526 C12.03662586 128.47321526 12.03662586 129.13321526 12.03662586 129.81321526 C13.02662586 130.15352776 13.02662586 130.15352776 14.03662586 130.50071526 C22.99394731 134.41954339 31.20701146 140.75380881 39.41772938 146.0256176 C41.06503349 147.08304588 42.71293249 148.13954725 44.36084461 149.19602776 C45.33110584 149.81880608 46.30136707 150.4415844 47.30103016 151.08323479 C49.8573741 152.69985711 52.43608344 154.26893047 55.03662586 155.81321526 C54.3237743 154.71364494 53.61092274 153.61407463 52.87646961 152.48118401 C51.90899862 150.98770937 50.94155203 149.49421893 49.97412586 148.00071526 C49.27513172 146.92273674 49.27513172 146.92273674 48.56201649 145.82298088 C45.88873517 141.69485259 43.23437915 137.55557933 40.59912586 133.40305901 C37.14498337 127.96769037 33.62799045 122.57525807 30.09912586 117.18821526 C21.51215384 104.05194741 13.06641755 90.82639375 4.62256336 77.59788322 C0.98899157 71.90900098 -2.665941 66.23745922 -6.42919445 60.63328362 C-11.21312063 53.50615139 -15.92612165 46.33299387 -20.58837414 39.12571526 C-21.53136364 37.6900219 -21.53136364 37.6900219 -22.49340343 36.22532463 C-23.36412487 34.87084221 -23.36412487 34.87084221 -24.25243664 33.48899651 C-24.77531261 32.68373528 -25.29818859 31.87847404 -25.83690929 31.04881096 C-26.96337414 28.81321526 -26.96337414 28.81321526 -26.96337414 24.81321526 C-25.24902659 22.68903736 -23.56412259 20.82965174 -21.63524914 18.91868401 C-21.08983471 18.367071 -20.54442028 17.81545799 -19.98247814 17.24712944 C-18.82731834 16.08486968 -17.66699368 14.9277238 -16.50194836 13.77537346 C-14.71804483 12.00534961 -12.95944451 10.21264725 -11.20165539 8.41673088 C-10.07680506 7.29092952 -8.95054869 6.1665309 -7.82274914 5.04368401 C-7.2965498 4.50422646 -6.77035046 3.96476891 -6.22820568 3.40896416 C-2.48877985 -0.23676899 -2.48877985 -0.23676899 0 0 Z " fill="#6A4FE8" transform="translate(338.9633741378784,140.1867847442627)"/>
<path d="M0 0 C3.16732567 1.50728923 6.07855724 3.26663946 9.02734375 5.1640625 C9.99655762 5.78571289 10.96577148 6.40736328 11.96435547 7.04785156 C13.46699951 8.01416504 13.46699951 8.01416504 15 9 C16.93828829 10.2377841 18.87708541 11.47477179 20.81640625 12.7109375 C23.72507371 14.56568262 26.63370247 16.4204762 29.54101562 18.27734375 C30.47751953 18.87417969 31.41402344 19.47101563 32.37890625 20.0859375 C33.64069702 20.8910376 33.64069702 20.8910376 34.92797852 21.71240234 C36.95287861 23.01487372 36.95287861 23.01487372 39 24 C39 24.66 39 25.32 39 26 C39.886875 26.2475 40.77375 26.495 41.6875 26.75 C45.12221969 28.04612064 47.20957115 29.66207313 50 32 C50.99 32.33 51.98 32.66 53 33 C53 33.66 53 34.32 53 35 C54.175625 35.2784375 54.175625 35.2784375 55.375 35.5625 C59.39069699 37.15493157 62.31657519 39.25681791 65.7890625 41.7890625 C70.74040085 45.1983782 75.921711 48.22760241 81.10644531 51.26733398 C81.86795898 51.72180908 82.62947266 52.17628418 83.4140625 52.64453125 C84.44974365 53.25325073 84.44974365 53.25325073 85.50634766 53.87426758 C85.99925293 54.24575928 86.4921582 54.61725098 87 55 C87 55.66 87 56.32 87 57 C87.99 57.3403125 87.99 57.3403125 89 57.6875 C92.91895479 59.40204272 96.3971603 61.71430836 100 64 C100.96083496 64.60287842 101.92166992 65.20575684 102.91162109 65.8269043 C106.17563884 67.87617528 109.43188378 69.93741205 112.6875 72 C113.80189453 72.69867188 114.91628906 73.39734375 116.06445312 74.1171875 C117.67803711 75.14199219 117.67803711 75.14199219 119.32421875 76.1875 C120.29447998 76.79980469 121.26474121 77.41210938 122.2644043 78.04296875 C125.16569446 80.11853697 127.54865203 82.41558125 130 85 C127.58473713 85.77545876 125.16790772 86.54536382 122.75 87.3125 C122.08742188 87.52583984 121.42484375 87.73917969 120.7421875 87.95898438 C115.61864899 89.57821588 110.4518751 90.92169685 105.234375 92.20336914 C99.51963048 93.61091831 93.82339521 95.09041457 88.125 96.5625 C86.94164062 96.86607422 85.75828125 97.16964844 84.5390625 97.48242188 C83.394375 97.77826172 82.2496875 98.07410156 81.0703125 98.37890625 C80.04695801 98.6426001 79.02360352 98.90629395 77.96923828 99.17797852 C74.93934116 100.01679315 71.97753314 100.99274217 69 102 C67.56885947 102.35965835 66.13137301 102.69545428 64.6875 103 C63.67236328 103.2165625 63.67236328 103.2165625 62.63671875 103.4375 C61.76660156 103.623125 60.89648438 103.80875 60 104 C59.39309326 104.31114746 58.78618652 104.62229492 58.16088867 104.94287109 C55.44687679 106.07683517 53.94106314 106.40060006 51 106 C46.0341619 102.4673675 42.05680965 98.08871773 37.9375 93.625 C36.77667964 92.40897957 35.61329123 91.1954051 34.44726562 89.984375 C31.60098107 87.01709586 28.79195604 84.01841645 26 81 C26.54138564 85.06179167 27.16007328 89.01242989 28.19921875 92.9765625 C28.43576172 93.8833374 28.67230469 94.7901123 28.91601562 95.72436523 C29.17060547 96.68157471 29.42519531 97.63878418 29.6875 98.625 C29.95369141 99.63699463 30.21988281 100.64898926 30.49414062 101.69165039 C32.2450037 108.29909867 34.09464504 114.87320821 36 121.4375 C38.26216882 129.28749017 40.43690355 137.15772696 42.5 145.0625 C42.77972656 146.09238037 43.05945313 147.12226074 43.34765625 148.18334961 C43.71697266 149.6259314 43.71697266 149.6259314 44.09375 151.09765625 C44.31740234 151.94851807 44.54105469 152.79937988 44.77148438 153.67602539 C45.05232387 156.5321271 44.43696377 157.54676548 43 160 C41.56698418 161.67911148 41.56698418 161.67911148 39.87423706 163.36627197 C38.91089951 164.33373352 38.91089951 164.33373352 37.92810059 165.32073975 C36.87290222 166.36515228 36.87290222 166.36515228 35.79638672 167.43066406 C35.0548233 168.17251953 34.31325989 168.914375 33.54922485 169.67871094 C31.09742329 172.12911939 28.63861395 174.572368 26.1796875 177.015625 C24.47817175 178.71341057 22.77709708 180.41163829 21.07644653 182.11029053 C16.59935194 186.57974916 12.11628362 191.04316914 7.63195801 195.50537109 C3.05701531 200.05985468 -1.51227048 204.62000567 -6.08203125 209.1796875 C-15.04914995 218.12535692 -24.02239708 227.0648529 -33 236 C-34.11081312 235.05536612 -35.22055349 234.1094707 -36.32984924 233.16305542 C-37.25700414 232.37314366 -37.25700414 232.37314366 -38.20288944 231.56727409 C-40.66633102 229.41888753 -42.97364767 227.13831725 -45.27734375 224.8203125 C-46.20224609 223.8921875 -47.12714844 222.9640625 -48.08007812 222.0078125 C-49.03260849 221.04693091 -49.98508178 220.08599274 -50.9375 219.125 C-51.91708237 218.14039081 -52.89689837 217.156014 -53.87695312 216.171875 C-56.25360252 213.78351797 -58.62787356 211.39284788 -61 209 C-59.8921248 207.0988431 -58.7840039 205.19782938 -57.67578125 203.296875 C-56.75019409 201.70891113 -56.75019409 201.70891113 -55.8059082 200.08886719 C-55.2099585 199.06954102 -54.61400879 198.05021484 -54 197 C-53.5052417 196.1534082 -53.0104834 195.30681641 -52.50073242 194.43457031 C-51.39053328 192.58774713 -50.20320688 190.78762166 -49 189 C-48.34 189 -47.68 189 -47 189 C-46.7215625 187.824375 -46.7215625 187.824375 -46.4375 186.625 C-44.77217932 182.42549568 -42.46052846 179.25324426 -39.8203125 175.61328125 C-37.23709404 171.90475518 -35.09602787 167.99887345 -33 164 C-32.34 164 -31.68 164 -31 164 C-30.74347656 163.29746094 -30.48695313 162.59492188 -30.22265625 161.87109375 C-28.88055153 158.719506 -27.25138753 155.96838447 -25.4375 153.0625 C-25.09323975 152.50908936 -24.74897949 151.95567871 -24.39428711 151.38549805 C-21.27453758 146.38956484 -18.08899219 141.43505066 -14.88256836 136.49438477 C-12.81914405 133.31839816 -12.81914405 133.31839816 -11 130 C-10.34 130 -9.68 130 -9 130 C-8.76152344 129.32453125 -8.52304688 128.6490625 -8.27734375 127.953125 C-6.70815489 124.32527554 -4.68030657 121.07342783 -2.5625 117.75 C-2.12437988 117.05616211 -1.68625977 116.36232422 -1.23486328 115.64746094 C6.3531849 103.66237387 14.08438699 91.77135574 22 80 C15.35397894 83.75694317 8.89899337 87.60714955 2.7421875 92.12890625 C0.33418028 93.7719767 -2.09623728 95.27033764 -4.6015625 96.7578125 C-10.25540385 100.1207562 -15.75349206 103.69975659 -21.25 107.3125 C-23.28621366 108.64620695 -25.32267107 109.97954186 -27.359375 111.3125 C-28.33197266 111.94929688 -29.30457031 112.58609375 -30.30664062 113.2421875 C-33.69213882 115.45172222 -37.09301107 117.63631336 -40.5 119.8125 C-45.03715158 122.71843756 -49.528355 125.68260735 -54 128.6875 C-61.05834092 133.42757801 -68.22961961 137.98131683 -75.42333984 142.51269531 C-80.31943711 145.60986377 -85.15970924 148.76571274 -89.9375 152.04296875 C-91.36908447 153.02088379 -91.36908447 153.02088379 -92.82958984 154.01855469 C-94.6603251 155.27528649 -96.48390882 156.54251556 -98.29931641 157.82128906 C-99.12093262 158.38428711 -99.94254883 158.94728516 -100.7890625 159.52734375 C-101.50787598 160.02999756 -102.22668945 160.53265137 -102.96728516 161.05053711 C-105 162 -105 162 -106.89697266 162.00244141 C-110.13276076 160.46005158 -112.39406699 157.97144551 -114.859375 155.43359375 C-115.40861633 154.88010757 -115.95785767 154.3266214 -116.52374268 153.75636292 C-118.27300464 151.99033441 -120.01153644 150.21415308 -121.75 148.4375 C-122.935505 147.23694559 -124.12169524 146.0370674 -125.30859375 144.83789062 C-128.21373293 141.89970905 -131.10929337 138.95237926 -134 136 C-132.67265169 133.06705581 -131.22189671 130.9605537 -128.97276306 128.66496277 C-128.35195862 128.0269574 -127.73115417 127.38895203 -127.09153748 126.73161316 C-126.41156204 126.04311783 -125.73158661 125.3546225 -125.03100586 124.64526367 C-123.95497604 123.54470139 -123.95497604 123.54470139 -122.85720825 122.42190552 C-120.4826337 119.99772967 -118.09986984 117.58186073 -115.71484375 115.16796875 C-114.49328174 113.93043571 -114.49328174 113.93043571 -113.2470417 112.66790199 C-108.93791501 108.30536727 -104.62149949 103.95017851 -100.30004883 99.59985352 C-96.72330648 95.99639231 -93.16166279 92.37896381 -89.61254883 88.74829102 C-85.32701425 84.36427708 -81.01759317 80.00517866 -76.68966866 75.66301918 C-75.04452556 74.00443114 -73.40791995 72.33732946 -71.7801342 70.66170311 C-69.50119694 68.31964324 -67.19283575 66.0109974 -64.87475586 63.70776367 C-64.20895004 63.00914719 -63.54314423 62.3105307 -62.85716248 61.59074402 C-58.26062897 57.11359724 -58.26062897 57.11359724 -54.61919975 56.78546238 C-52.32598481 57.01725193 -50.22434506 57.40461795 -48 58 C-46.45747559 58.40424194 -46.45747559 58.40424194 -44.88378906 58.81665039 C-43.93729492 59.13625732 -42.99080078 59.45586426 -42.015625 59.78515625 C-36.93297018 61.42203099 -31.84507075 62.87148478 -26.671875 64.18359375 C-25.94601196 64.36814117 -25.22014893 64.5526886 -24.47229004 64.74282837 C-22.23213792 65.31017512 -19.99122242 65.87439712 -17.75 66.4375 C-14.78547474 67.18236702 -11.821804 67.93043038 -8.859375 68.68359375 C-8.1336731 68.86779877 -7.40797119 69.05200378 -6.66027832 69.24179077 C-0.55401942 70.81271417 5.48733735 72.57883797 11.50689697 74.45420837 C14.87259105 75.48087552 17.43887921 76 21 76 C20.40895981 75.42006287 19.81791962 74.84012573 19.20896912 74.24261475 C13.64823298 68.78195616 8.09952219 63.30942424 2.5640707 57.82313156 C-0.2823808 55.00280262 -3.13330725 52.18732323 -5.99487305 49.38232422 C-8.75495573 46.67646572 -11.5027354 43.95866509 -14.24232292 41.23206329 C-15.29100262 40.19264069 -16.34408189 39.15763797 -17.40152168 38.1271286 C-18.87917616 36.68563668 -20.34056744 35.22938325 -21.79907227 33.76855469 C-22.63624283 32.94248718 -23.47341339 32.11641968 -24.33595276 31.26531982 C-26 29 -26 29 -25.91308594 26.8737793 C-24.39273699 23.75381187 -21.89244912 21.52919471 -19.43359375 19.140625 C-18.88010757 18.59138367 -18.3266214 18.04214233 -17.75636292 17.47625732 C-15.99033441 15.72699536 -14.21415308 13.98846356 -12.4375 12.25 C-11.23694559 11.064495 -10.0370674 9.87830476 -8.83789062 8.69140625 C-5.89970905 5.78626707 -2.95237926 2.89070663 0 0 Z " fill="#5A50D5" transform="translate(264,213)"/>
<path d="M0 0 C2.55134839 1.61113459 4.52012782 3.65477837 6.58984375 5.8359375 C7.47392662 6.7277623 7.47392662 6.7277623 8.37586975 7.63760376 C9.6134101 8.89223865 10.84257485 10.1551839 12.0637207 11.42578125 C13.93972158 13.37731102 15.83900112 15.30350787 17.74414062 17.2265625 C18.944126 18.44913096 20.14274345 19.67304392 21.33984375 20.8984375 C21.90847641 21.47870697 22.47710907 22.05897644 23.06297302 22.65682983 C27 26.76444281 27 26.76444281 27 29 C27.56354187 29.23822479 28.12708374 29.47644958 28.70770264 29.72189331 C31.50894144 31.28376836 33.41396316 33.17447944 35.67675781 35.44970703 C36.59741028 36.37051056 37.51806274 37.29131409 38.46661377 38.24002075 C39.4622253 39.24584465 40.45772648 40.2517778 41.453125 41.2578125 C42.47830193 42.28672149 43.50392275 43.31518837 44.52996826 44.3432312 C47.22393164 47.04481581 49.91183368 49.75235341 52.59851074 52.46118164 C55.34328304 55.22644489 58.09375472 57.98602633 60.84375 60.74609375 C66.23475573 66.15852274 71.61936964 71.57725438 77 77 C75.19042215 80.89262419 72.68961969 83.64949322 69.6953125 86.67578125 C69.17492401 87.20519821 68.65453552 87.73461517 68.11837769 88.28007507 C67.01996594 89.39295341 65.91875652 90.50307652 64.81494141 91.6105957 C63.12537057 93.31212681 61.45534885 95.03142393 59.78515625 96.75195312 C58.71469409 97.83187272 57.64311678 98.91068831 56.5703125 99.98828125 C56.07226105 100.50586502 55.57420959 101.02344879 55.06106567 101.55671692 C53.62548828 102.97387695 53.62548828 102.97387695 51 105 C47.85244833 104.94480545 45.65209108 103.31313738 43.06640625 101.6015625 C42.33486328 101.12203125 41.60332031 100.6425 40.84960938 100.1484375 C39.71749023 99.39433594 39.71749023 99.39433594 38.5625 98.625 C37.06426313 97.6373211 35.56557652 96.65032403 34.06640625 95.6640625 C33.36531738 95.1990332 32.66422852 94.73400391 31.94189453 94.25488281 C30.31761761 93.2052495 28.64580802 92.22966171 26.96484375 91.2734375 C26.31644531 90.85320312 25.66804688 90.43296875 25 90 C25 89.34 25 88.68 25 88 C24.1440625 87.75378906 23.288125 87.50757813 22.40625 87.25390625 C18.74940419 85.90775086 15.71269604 84.09157127 12.5 81.9375 C11.27614731 81.13395367 10.05218554 80.33057343 8.828125 79.52734375 C8.20228516 79.11339355 7.57644531 78.69944336 6.93164062 78.27294922 C3.72059013 76.15687019 0.48493532 74.07929947 -2.75 72 C-3.34619141 71.61448975 -3.94238281 71.22897949 -4.55664062 70.83178711 C-7.70939846 68.79723428 -7.70939846 68.79723428 -11 67 C-11 66.34 -11 65.68 -11 65 C-11.58861816 64.87995605 -12.17723633 64.75991211 -12.78369141 64.63623047 C-15.06169001 63.98229079 -16.52282704 63.1637692 -18.4609375 61.8203125 C-19.09773438 61.38589844 -19.73453125 60.95148438 -20.390625 60.50390625 C-21.04546875 60.04886719 -21.7003125 59.59382813 -22.375 59.125 C-26.79845071 56.06735578 -31.10911694 53.28644997 -36 51 C-36 50.34 -36 49.68 -36 49 C-37.08982178 48.59491211 -37.08982178 48.59491211 -38.20166016 48.18164062 C-40.94072423 47.02503008 -43.27274233 45.6954037 -45.7734375 44.09375 C-46.67425049 43.51923096 -47.57506348 42.94471191 -48.50317383 42.3527832 C-49.92472778 41.43565552 -49.92472778 41.43565552 -51.375 40.5 C-52.34783936 39.87504639 -53.32067871 39.25009277 -54.32299805 38.60620117 C-56.28871609 37.34070841 -58.25284549 36.07274438 -60.21533203 34.80224609 C-61.96661729 33.66880863 -63.7199134 32.53846609 -65.47607422 31.41259766 C-67.59399241 30.05456063 -69.70455338 28.68594667 -71.8125 27.3125 C-72.43366699 26.91546875 -73.05483398 26.5184375 -73.69482422 26.109375 C-77.88473662 23.34579015 -77.88473662 23.34579015 -79 20 C-78.14019531 19.75765625 -77.28039062 19.5153125 -76.39453125 19.265625 C-69.40369632 17.28349078 -62.44680309 15.2371303 -55.5234375 13.02734375 C-51.47908909 11.84811578 -47.40721032 10.83345077 -43.31787109 9.82299805 C-37.57719658 8.39902352 -31.85160149 6.91687205 -26.125 5.4375 C-24.94164062 5.13392578 -23.75828125 4.83035156 -22.5390625 4.51757812 C-21.394375 4.22173828 -20.2496875 3.92589844 -19.0703125 3.62109375 C-18.04695801 3.3573999 -17.02360352 3.09370605 -15.96923828 2.82202148 C-12.97632705 2.04033875 -12.97632705 2.04033875 -10.05810547 0.89868164 C-6.37038775 -0.18502337 -3.82647511 -0.52984808 0 0 Z " fill="#6350DF" transform="translate(362,378)"/>
<path d="M0 0 C5.190873 4.56167627 8.39291131 10.15960181 12 16 C13.30798014 18.04456523 14.6208198 20.08602666 15.9375 22.125 C19.56419335 27.75630088 23.17469763 33.39789035 26.78295898 39.04101562 C37.64397562 56.02521715 48.52688944 72.98387082 59.81640625 89.6875 C60.33074219 90.450625 60.84507812 91.21375 61.375 92 C61.79523438 92.61875 62.21546875 93.2375 62.6484375 93.875 C64.162703 96.2558105 65.54272864 98.70343924 66.93359375 101.15771484 C68.63659032 104.09975059 70.46893857 106.95752347 72.3125 109.8125 C72.69841309 110.41634521 73.08432617 111.02019043 73.48193359 111.64233398 C76.4122641 116.19345454 79.55275148 120.54652801 82.8828125 124.81640625 C84 127 84 127 83.91333008 129.26416016 C82.66165999 133.01348255 80.27269459 135.26256057 77.50390625 137.95703125 C76.68079201 138.77877083 76.68079201 138.77877083 75.84104919 139.61711121 C74.68317788 140.76895617 73.52046511 141.91595221 72.35327148 143.05834961 C70.5616955 144.81328805 68.7867686 146.5838342 67.01367188 148.35742188 C65.88635826 149.47490901 64.75813396 150.59147836 63.62890625 151.70703125 C63.09552139 152.23819046 62.56213654 152.76934967 62.0125885 153.31660461 C58.23216392 157 58.23216392 157 56 157 C54.51971149 155.50082302 54.51971149 155.50082302 52.81282043 153.44590759 C49.37050588 149.40054591 45.75554117 145.61361669 41.99487305 141.86547852 C41.00329445 140.87127144 41.00329445 140.87127144 39.99168396 139.85697937 C37.83418186 137.69512153 35.67309738 135.53688788 33.51171875 133.37890625 C32.00179181 131.86830495 30.49201329 130.35755529 28.9823761 128.84666443 C25.83288977 125.69571007 22.68161726 122.54655614 19.52905273 119.39868164 C15.48252915 115.35788432 11.44055111 111.31257443 7.39987469 107.26593113 C4.29025928 104.15271099 1.17827705 101.04186555 -1.93443871 97.93174553 C-3.4267644 96.44008783 -4.9183451 94.94768442 -6.40917397 93.45453072 C-8.48432673 91.37684973 -10.56263807 89.3023818 -12.6418457 87.22875977 C-13.25950806 86.60907318 -13.87717041 85.9893866 -14.5135498 85.35092163 C-17.47495391 82.30429605 -17.47495391 82.30429605 -21 80 C-21.33252735 75.56630193 -20.51184605 72.46754844 -18.8515625 68.37890625 C-17.46252001 64.49850774 -16.69715034 60.48406604 -15.80859375 56.46484375 C-15.01923642 53.08242855 -14.1023796 49.77001117 -13.125 46.4375 C-11.46163349 40.73904668 -9.98062765 35.0141095 -8.5625 29.25 C-6.87537219 22.41352177 -5.1209163 15.60115572 -3.25 8.8125 C-3.03931885 8.0400293 -2.8286377 7.26755859 -2.61157227 6.47167969 C-1.12137422 1.12137422 -1.12137422 1.12137422 0 0 Z " fill="#5A51D5" transform="translate(281,400)"/>
<path d="M0 0 C1.54252441 0.40424194 1.54252441 0.40424194 3.11621094 0.81665039 C4.06270508 1.13625732 5.00919922 1.45586426 5.984375 1.78515625 C11.06702982 3.42203099 16.15492925 4.87148478 21.328125 6.18359375 C22.05398804 6.36814117 22.77985107 6.5526886 23.52770996 6.74282837 C25.76786208 7.31017512 28.00877758 7.87439712 30.25 8.4375 C39.3054575 10.71277548 48.33455672 13.03809542 57.296875 15.66015625 C57.99717834 15.86418564 58.69748169 16.06821503 59.41900635 16.27842712 C63.02793325 17.34939148 66.53236924 18.53334485 70 20 C66.65853143 23.65289007 62.93182289 26.20031502 58.8125 28.875 C57.46480558 29.76035856 56.11714918 30.64577501 54.76953125 31.53125 C54.12064941 31.95535156 53.47176758 32.37945312 52.80322266 32.81640625 C49.88935059 34.72900465 47.00830983 36.69018957 44.125 38.6484375 C42.39940097 39.74596924 40.6290769 40.77294921 38.84765625 41.77734375 C34.249465 44.38286313 29.85510112 47.28970607 25.4375 50.1875 C23.65124431 51.3544769 21.86478519 52.52114249 20.078125 53.6875 C18.77584961 54.53828125 18.77584961 54.53828125 17.44726562 55.40625 C14.20518564 57.51761255 10.94764543 59.6041945 7.6875 61.6875 C3.08850224 64.63598637 -1.46612091 67.64069906 -6 70.6875 C-13.05833449 75.42758738 -20.22961992 79.98131703 -27.42333984 84.51269531 C-32.31943711 87.60986377 -37.15970924 90.76571274 -41.9375 94.04296875 C-43.36908447 95.02088379 -43.36908447 95.02088379 -44.82958984 96.01855469 C-46.6603251 97.27528649 -48.48390882 98.54251556 -50.29931641 99.82128906 C-51.12093262 100.38428711 -51.94254883 100.94728516 -52.7890625 101.52734375 C-53.50787598 102.02999756 -54.22668945 102.53265137 -54.96728516 103.05053711 C-57 104 -57 104 -58.89697266 104.00244141 C-62.13276076 102.46005158 -64.39406699 99.97144551 -66.859375 97.43359375 C-67.40861633 96.88010757 -67.95785767 96.3266214 -68.52374268 95.75636292 C-70.27300464 93.99033441 -72.01153644 92.21415308 -73.75 90.4375 C-74.935505 89.23694559 -76.12169524 88.0370674 -77.30859375 86.83789062 C-80.21373293 83.89970905 -83.10929337 80.95237926 -86 78 C-84.67265169 75.06705581 -83.22189671 72.9605537 -80.97276306 70.66496277 C-80.35195862 70.0269574 -79.73115417 69.38895203 -79.09153748 68.73161316 C-78.41156204 68.04311783 -77.73158661 67.3546225 -77.03100586 66.64526367 C-75.95497604 65.54470139 -75.95497604 65.54470139 -74.85720825 64.42190552 C-72.4826337 61.99772967 -70.09986984 59.58186073 -67.71484375 57.16796875 C-66.90046907 56.34294672 -66.0860944 55.51792469 -65.2470417 54.66790199 C-60.93791501 50.30536727 -56.62149949 45.95017851 -52.30004883 41.59985352 C-48.72330648 37.99639231 -45.16166279 34.37896381 -41.61254883 30.74829102 C-37.32701425 26.36427708 -33.01759317 22.00517866 -28.68966866 17.66301918 C-27.04452556 16.00443114 -25.40791995 14.33732946 -23.7801342 12.66170311 C-21.50119694 10.31964324 -19.19283575 8.0109974 -16.87475586 5.70776367 C-16.20895004 5.00914719 -15.54314423 4.3105307 -14.85716248 3.59074402 C-9.91080958 -1.22713622 -6.62660048 -1.77371714 0 0 Z " fill="#4A51C2" transform="translate(216,271)"/>
<path d="M0 0 C6.56458035 5.40831904 7.34338068 17.34377226 9.09765625 25.26171875 C10.19847307 29.82224558 11.499386 34.30937989 12.8125 38.8125 C15.13971464 46.87035108 17.3839222 54.94646632 19.5 63.0625 C19.77948486 64.09157471 20.05896973 65.12064941 20.34692383 66.1809082 C20.59337646 67.14343506 20.8398291 68.10596191 21.09375 69.09765625 C21.31740234 69.94851807 21.54105469 70.79937988 21.77148438 71.67602539 C22.05232387 74.5321271 21.43696377 75.54676548 20 78 C18.56698418 79.67911148 18.56698418 79.67911148 16.87423706 81.36627197 C16.23201202 82.01124634 15.58978699 82.6562207 14.92810059 83.32073975 C14.22463501 84.01701477 13.52116943 84.71328979 12.79638672 85.43066406 C12.0548233 86.17251953 11.31325989 86.914375 10.54922485 87.67871094 C8.09742329 90.12911939 5.63861395 92.572368 3.1796875 95.015625 C1.47817175 96.71341057 -0.22290292 98.41163829 -1.92355347 100.11029053 C-6.40064806 104.57974916 -10.88371638 109.04316914 -15.36804199 113.50537109 C-19.94298469 118.05985468 -24.51227048 122.62000567 -29.08203125 127.1796875 C-38.04914995 136.12535692 -47.02239708 145.0648529 -56 154 C-57.11081312 153.05536612 -58.22055349 152.1094707 -59.32984924 151.16305542 C-60.25700414 150.37314366 -60.25700414 150.37314366 -61.20288944 149.56727409 C-63.66633102 147.41888753 -65.97364767 145.13831725 -68.27734375 142.8203125 C-69.20224609 141.8921875 -70.12714844 140.9640625 -71.08007812 140.0078125 C-72.03260849 139.04693091 -72.98508178 138.08599274 -73.9375 137.125 C-74.91708237 136.14039081 -75.89689837 135.156014 -76.87695312 134.171875 C-79.25360252 131.78351797 -81.62787356 129.39284788 -84 127 C-82.8921248 125.0988431 -81.7840039 123.19782938 -80.67578125 121.296875 C-80.05872314 120.23823242 -79.44166504 119.17958984 -78.8059082 118.08886719 C-78.2099585 117.06954102 -77.61400879 116.05021484 -77 115 C-76.5052417 114.1534082 -76.0104834 113.30681641 -75.50073242 112.43457031 C-74.39053328 110.58774713 -73.20320688 108.78762166 -72 107 C-71.34 107 -70.68 107 -70 107 C-69.814375 106.21625 -69.62875 105.4325 -69.4375 104.625 C-67.77217932 100.42549568 -65.46052846 97.25324426 -62.8203125 93.61328125 C-60.23709404 89.90475518 -58.09602787 85.99887345 -56 82 C-55.34 82 -54.68 82 -54 82 C-53.74347656 81.29746094 -53.48695313 80.59492188 -53.22265625 79.87109375 C-51.88055153 76.719506 -50.25138753 73.96838447 -48.4375 71.0625 C-48.09323975 70.50908936 -47.74897949 69.95567871 -47.39428711 69.38549805 C-44.27453758 64.38956484 -41.08899219 59.43505066 -37.88256836 54.49438477 C-35.81914405 51.31839816 -35.81914405 51.31839816 -34 48 C-33.34 48 -32.68 48 -32 48 C-31.76152344 47.32453125 -31.52304688 46.6490625 -31.27734375 45.953125 C-29.70815378 42.32527296 -27.68025683 39.07346311 -25.5625 35.75 C-25.12728027 35.0605127 -24.69206055 34.37102539 -24.24365234 33.66064453 C-19.61390862 26.34627531 -14.92725053 19.0666285 -10.18945312 11.82177734 C-9.06869519 10.10521419 -7.95973291 8.38096613 -6.8515625 6.65625 C-4.87470329 3.82024945 -2.79047066 2.01533992 0 0 Z " fill="#5351CC" transform="translate(287,295)"/>
<path d="M0 0 C0.33 0.66 0.66 1.32 1 2 C1.66 2 2.32 2 3 2 C3 3.65 3 5.3 3 7 C1 8 -1 9 -3 10 C-2.690625 9.401875 -2.38125 8.80375 -2.0625 8.1875 C-0.89790296 5.91043228 -0.89790296 5.91043228 0 3 C-0.66 2.34 -1.32 1.68 -2 1 C-1.34 0.67 -0.68 0.34 0 0 Z " fill="#7975DA" transform="translate(286,289)"/>
</svg>
